<svg width="86" height="91" viewBox="0 0 86 91" fill="none" xmlns="http://www.w3.org/2000/svg">
<path d="M17.6322 45.8271C20.0091 38.6162 27.7581 33.2182 35.4158 33.245C43.0952 33.2718 50.7153 38.6909 53.2315 46.0782C55.7531 53.5086 53.1347 62.8973 46.9748 67.404C40.8156 71.9101 30.9919 71.5779 24.6059 66.8563C18.2253 62.111 15.2557 53.0099 17.6322 45.8271Z" fill="#EA9658"/>
<path d="M18.7623 45.7876C20.9867 39.0371 28.2473 33.975 35.419 34.0001C42.6099 34.0252 49.7515 39.1057 52.1078 46.0262C54.4706 52.9919 52.012 61.7933 46.2505 66.0101C40.4896 70.2263 31.2815 69.9197 25.2966 65.4929C19.3187 61.045 16.5385 52.5112 18.7623 45.7876Z" fill="#074456" stroke="#EA9658"/>
</svg>
