<svg width="80" height="80" viewBox="0 0 80 80" fill="none" xmlns="http://www.w3.org/2000/svg">
<path d="M68.9159 31.3497L68.9167 31.3513C70.0461 33.516 70.1794 36.2124 69.7792 39.3058C69.4233 42.0561 68.6565 45.0522 67.8552 48.1829C67.7556 48.5722 67.6554 48.9636 67.5554 49.3568C67.4775 49.6634 67.3999 49.9703 67.3224 50.2767C66.4996 53.5293 65.6878 56.7387 64.5882 59.2118C63.3721 61.9467 61.9125 63.54 59.92 63.54L59.9157 63.54C58.8766 63.549 57.616 63.1327 56.1735 62.4121C54.7405 61.6962 53.185 60.7099 51.566 59.6381C51.112 59.3375 50.6525 59.0297 50.1895 58.7197C47.384 56.8406 44.4502 54.8757 41.8161 53.892C38.6976 52.7074 36.005 52.8896 33.502 53.3637C32.7547 53.5053 32.0028 53.6777 31.2673 53.8465C30.7949 53.9548 30.3292 54.0616 29.8757 54.1577C28.6932 54.4084 27.5345 54.6008 26.3519 54.6201C23.9833 54.6586 21.4703 54.0022 19.3999 52.8391C17.3247 51.6732 15.7474 50.0305 15.1575 48.1316C14.5663 46.2286 14.9323 43.956 15.8063 41.4921C16.6351 39.1555 17.8898 36.7278 19.0994 34.3873C19.1612 34.2678 19.2228 34.1485 19.2843 34.0294C19.401 33.8035 19.5168 33.5789 19.6318 33.3557C22.0146 28.7342 24.0938 24.7015 27.3062 21.6008C30.7179 18.3464 35.3516 16.1069 39.8587 16.2996L39.8628 16.2997C42.0924 16.3766 44.3059 17.0694 46.6882 18.0896C48.1352 18.7093 49.6125 19.4346 51.1835 20.2059C52.2182 20.7138 53.2935 21.2418 54.4275 21.7726C55.1884 22.1313 55.9646 22.4855 56.7444 22.8414C58.8632 23.8084 61.0091 24.7877 62.9509 25.9035C65.6062 27.4293 67.7832 29.1598 68.9159 31.3497Z" fill="#EA9658" stroke="#EA9658"/>
<path d="M52.8775 16.3715C53.6924 16.76 54.524 17.1438 55.3597 17.5295C57.6315 18.578 59.9341 19.6407 62.017 20.8511C64.8647 22.5059 67.2065 24.3863 68.4264 26.7714L68.4272 26.7729C69.6442 29.1319 69.7859 32.0666 69.3564 35.4236C68.9745 38.4082 68.1518 41.6591 67.293 45.0525C67.1861 45.4745 67.0788 45.8987 66.9716 46.3249C66.888 46.6575 66.8048 46.9904 66.7216 47.3229C65.84 50.8477 64.9688 54.3308 63.7883 57.0156C62.4828 59.9847 60.9087 61.7306 58.7522 61.7306L58.7479 61.7306C57.6267 61.7404 56.2698 61.2864 54.722 60.5045C53.1839 59.7274 51.5149 58.6571 49.7794 57.4952C49.2923 57.169 48.7995 56.8353 48.3031 56.499C45.2955 54.462 42.1547 52.3348 39.3352 51.2699C35.9995 49.9883 33.1192 50.1851 30.4389 50.6985C29.6381 50.8519 28.8336 51.0385 28.0457 51.2213C27.5392 51.3388 27.0396 51.4547 26.5523 51.5591C25.2839 51.8309 24.0397 52.04 22.7691 52.0609C20.2246 52.1028 17.5253 51.3898 15.3008 50.1261C13.0719 48.8598 11.3716 47.0722 10.7348 44.9991C10.0964 42.9213 10.493 40.4456 11.4308 37.7719C12.3203 35.2358 13.6665 32.6016 14.9628 30.0653C15.0291 29.9354 15.0954 29.8057 15.1615 29.6763C15.2869 29.4307 15.4114 29.1865 15.5352 28.9437C18.0883 23.9359 20.3201 19.5584 23.7686 16.1922C27.4313 12.659 32.4068 10.2264 37.2486 10.4356L37.2528 10.4358C39.6483 10.5193 42.0253 11.272 44.5805 12.3787C46.1322 13.0507 47.7174 13.8377 49.4022 14.6742C50.5112 15.2248 51.6633 15.7968 52.8775 16.3715ZM52.8775 16.3715C52.8778 16.3717 52.8781 16.3718 52.8784 16.3719L53.0923 15.92L52.8771 16.3714C52.8772 16.3714 52.8774 16.3715 52.8775 16.3715Z" fill="#074456" stroke="#EA9658"/>
</svg>
